<svg viewBox="0 0 24 24" fill="none" xmlns="http://www.w3.org/2000/svg">
  <path d="M21 11.5C21 11.5 21 11.5 21 11.5C21 12.8807 20.6315 14.2263 19.948 15.3893C19.2646 16.5523 18.2969 17.4881 17.148 18.0901C15.9992 18.692 14.7136 18.9377 13.435 18.7993C12.1563 18.6608 10.9362 18.1434 9.91 17.31L3 20L5.69 13.09C4.85656 12.0638 4.33922 10.8437 4.20075 9.56503C4.06228 8.28636 4.30798 7.00079 4.90993 5.85195C5.51188 4.70311 6.44771 3.73543 7.61072 3.05197C8.77373 2.36851 10.1193 2 11.5 2H12C14.3869 2 16.6761 2.94821 18.364 4.63604C20.0518 6.32387 21 8.61305 21 11V11.5Z" stroke="currentColor" stroke-width="1.8" stroke-linecap="round" stroke-linejoin="round"/>
</svg>