<svg viewBox="0 0 24 24" fill="none" xmlns="http://www.w3.org/2000/svg">
  <circle cx="12" cy="12" r="3" stroke="currentColor" stroke-width="1.8"/>
  <path d="M19.4 15C19.2669 15.3016 19.2272 15.6362 19.286 15.9606C19.3448 16.285 19.4995 16.5843 19.73 16.82L19.79 16.88C19.976 17.0657 20.1235 17.2863 20.2241 17.5291C20.3248 17.7719 20.3766 18.0322 20.3766 18.295C20.3766 18.5578 20.3248 18.8181 20.2241 19.0609C20.1235 19.3037 19.976 19.5243 19.79 19.71C19.6043 19.896 19.3837 20.0435 19.1409 20.1441C18.8981 20.2448 18.6378 20.2966 18.375 20.2966C18.1122 20.2966 17.8519 20.2448 17.6091 20.1441C17.3663 20.0435 17.1457 19.896 16.96 19.71L16.9 19.65C16.6643 19.4195 16.365 19.2648 16.0406 19.206C15.7162 19.1472 15.3816 19.1869 15.08 19.32C14.7842 19.4467 14.532 19.6572 14.3553 19.9255C14.1786 20.1937 14.0856 20.5082 14.09 20.83V21C14.09 21.5304 13.8793 22.0391 13.5042 22.4142C13.1291 22.7893 12.6204 23 12.09 23C11.5596 23 11.0509 22.7893 10.6758 22.4142C10.3007 22.0391 10.09 21.5304 10.09 21V20.91C10.0953 20.569 9.99815 20.2337 9.81104 19.9491C9.62393 19.6644 9.35595 19.4441 9.04003 19.32C8.73838 19.1869 8.40381 19.1472 8.07941 19.206C7.75501 19.2648 7.45573 19.4195 7.22003 19.65L7.16003 19.71C6.97429 19.896 6.75368 20.0435 6.51088 20.1441C6.26808 20.2448 6.00779 20.2966 5.74503 20.2966C5.48227 20.2966 5.22198 20.2448 4.97918 20.1441C4.73638 20.0435 4.51577 19.896 4.33003 19.71C4.14405 19.5243 3.99653 19.3037 3.89588 19.0609C3.79523 18.8181 3.74344 18.5578 3.74344 18.295C3.74344 18.0322 3.79523 17.7719 3.89588 17.5291C3.99653 17.2863 4.14405 17.0657 4.33003 16.88L4.39003 16.82C4.62054 16.5843 4.77524 16.285 4.83403 15.9606C4.89282 15.6362 4.85314 15.3016 4.72003 15C4.59337 14.7042 4.38288 14.452 4.11463 14.2753C3.84638 14.0986 3.53183 14.0056 3.21003 14.01H3.09003C2.5596 14.01 2.05089 13.7993 1.67581 13.4242C1.30074 13.0491 1.09003 12.5404 1.09003 12.01C1.09003 11.4796 1.30074 10.9709 1.67581 10.5958C2.05089 10.2207 2.5596 10.01 3.09003 10.01H3.18003C3.52197 10.0153 3.85718 9.91815 4.14179 9.73104C4.42641 9.54393 4.64672 9.27595 4.77003 8.96C4.90314 8.65838 4.94282 8.32381 4.88403 7.99941C4.82524 7.67501 4.67054 7.37573 4.44003 7.14L4.38003 7.08C4.19405 6.89426 4.04653 6.67365 3.94588 6.43085C3.84523 6.18805 3.79344 5.92776 3.79344 5.665C3.79344 5.40224 3.84523 5.14195 3.94588 4.89915C4.04653 4.65635 4.19405 4.43574 4.38003 4.25C4.56577 4.06402 4.78638 3.9165 5.02918 3.81585C5.27198 3.7152 5.53227 3.66341 5.79503 3.66341C6.05779 3.66341 6.31808 3.7152 6.56088 3.81585C6.80368 3.9165 7.02429 4.06402 7.21003 4.25L7.27003 4.31C7.50573 4.54051 7.80501 4.69521 8.12941 4.754C8.45381 4.81279 8.78838 4.77311 9.09003 4.64H9.08003C9.37587 4.51337 9.62807 4.30288 9.80476 4.03463C9.98146 3.76638 10.0745 3.45183 10.07 3.13V3C10.07 2.46957 10.2807 1.96086 10.6558 1.58579C11.0309 1.21071 11.5396 1 12.07 1C12.6004 1 13.1091 1.21071 13.4842 1.58579C13.8593 1.96086 14.07 2.46957 14.07 3V3.09C14.0647 3.43097 14.1619 3.76627 14.349 4.05088C14.5361 4.3355 14.8041 4.55581 15.12 4.68C15.4217 4.81311 15.7562 4.85279 16.0806 4.794C16.405 4.73521 16.7043 4.58051 16.94 4.35L17 4.29C17.1857 4.10402 17.4063 3.9565 17.6491 3.85585C17.8919 3.7552 18.1522 3.70341 18.415 3.70341C18.6778 3.70341 18.9381 3.7552 19.1809 3.85585C19.4237 3.9565 19.6443 4.10402 19.83 4.29C20.016 4.47574 20.1635 4.69635 20.2642 4.93915C20.3648 5.18195 20.4166 5.44224 20.4166 5.705C20.4166 5.96776 20.3648 6.22805 20.2642 6.47085C20.1635 6.71365 20.016 6.93426 19.83 7.12L19.77 7.18C19.5395 7.41573 19.3848 7.71501 19.326 8.03941C19.2672 8.36381 19.3069 8.69838 19.44 9V8.99C19.5667 9.28584 19.7772 9.53804 20.0454 9.71473C20.3137 9.89142 20.6282 9.98445 20.95 9.98H21.07C21.6004 9.98 22.1091 10.1907 22.4842 10.5658C22.8593 10.9409 23.07 11.4496 23.07 11.98C23.07 12.5104 22.8593 13.0191 22.4842 13.3942C22.1091 13.7693 21.6004 13.98 21.07 13.98H20.98C20.6381 13.9747 20.3029 13.0719 20.0182 13.259C19.7336 13.4461 19.5133 13.7141 19.39 14.03V14.02L19.4 15Z" stroke="currentColor" stroke-width="1.8" stroke-linecap="round" stroke-linejoin="round"/>
</svg>