<svg viewBox="0 0 24 24" fill="none" xmlns="http://www.w3.org/2000/svg">
  <path d="M9.5 4C5.36 4 2 6.69 2 10C2 11.89 3.08 13.56 4.78 14.67L4 17L7.14 15.64C7.83 15.87 8.59 16 9.5 16C9.69 16 9.87 15.99 10.05 15.97C9.97 15.46 9.93 14.93 9.93 14.39C9.93 10.86 13.08 8 17 8C17.2 8 17.4 8.01 17.59 8.03C16.78 5.7 14.23 4 11.5 4H9.5Z" stroke="currentColor" stroke-width="1.8" stroke-linecap="round" stroke-linejoin="round"/>
  <path d="M17 8C13.69 8 11 10.24 11 13C11 15.76 13.69 18 17 18C17.71 18 18.39 17.89 19.03 17.7L21.5 18.8L20.9 16.75C22.09 15.85 22.88 14.5 22.88 13C22.88 10.24 20.19 8 17 8Z" stroke="currentColor" stroke-width="1.8" stroke-linecap="round" stroke-linejoin="round"/>
  <circle cx="7" cy="9" r="1" fill="currentColor"/>
  <circle cx="12" cy="9" r="1" fill="currentColor"/>
  <circle cx="14.5" cy="12.5" r="1" fill="currentColor"/>
  <circle cx="19.5" cy="12.5" r="1" fill="currentColor"/>
</svg>